<svg xmlns="http://www.w3.org/2000/svg" width="1005" height="600"><rect width="1005" height="600" x="0" y="0" fill="#FFFFFF" id="background"/><g id="viz"><g transform="translate(0,0)"><g id="pie" transform="translate(402.5,300)"><path fill="#1f77b4" stroke="#FFFFFF" d="M1.5308084989341916e-14,-250A250,250,0,0,1,145.0916878736738,203.58880644566003L0,0Z"/><path fill="#ff7f0e" stroke="#FFFFFF" d="M145.0916878736738,203.58880644566003A250,250,0,0,1,-139.4217898595803,207.51280565871357L0,0Z"/><path fill="#2ca02c" stroke="#FFFFFF" d="M-139.4217898595803,207.51280565871357A250,250,0,0,1,-4.5924254968025744e-14,-250L0,0Z"/></g><text y="46" x="402.5" style="font-family: Arial, sans-serif; font-size: 12px; fill: black; font-weight: bold; dominant-baseline: auto; text-anchor: middle;"/></g></g><g id="legend" transform="translate(805,50)"><g transform="translate(5,0)"><g class="legendColor" transform="translate(0,0)"><g class="legendCells" transform="translate(0,16)"><g class="cell" transform="translate(0, 0)"><rect class="swatch" height="15" width="15" style="fill: rgb(31, 119, 180);"/><text class="label" transform="translate( 20, 12.5)" font-family="&quot;Arial&quot;, sans-serif" font-size="10px"><tspan x="0" dy="0em">Carbohidratos</tspan></text></g><g class="cell" transform="translate(0, 21)"><rect class="swatch" height="15" width="15" style="fill: rgb(255, 127, 14);"/><text class="label" transform="translate( 20, 12.5)" font-family="&quot;Arial&quot;, sans-serif" font-size="10px"><tspan x="0" dy="0em">Grasas</tspan></text></g><g class="cell" transform="translate(0, 42)"><rect class="swatch" height="15" width="15" style="fill: rgb(44, 160, 44);"/><text class="label" transform="translate( 20, 12.5)" font-family="&quot;Arial&quot;, sans-serif" font-size="10px"><tspan x="0" dy="0em">Proteinas</tspan></text></g></g><text class="legendTitle" font-family="&quot;Arial&quot;, sans-serif" font-size="12px" font-weight="bold"><tspan x="0" dy="0em">Arcs colors</tspan></text></g></g></g></svg>