<svg xmlns="http://www.w3.org/2000/svg" width="805" height="600"><rect width="805" height="600" x="0" y="0" fill="#FFFFFF" id="background"/><g id="series"><g transform="translate(0,0)"><g transform="translate(50,50)" clip-path="url(#serieClipPath)"><g id="axis"><g transform="translate(0,500)" fill="none" font-size="10" font-family="sans-serif" text-anchor="middle"><path class="domain" stroke="currentColor" d="M0.5,6V0.5H705.5V6"/><g class="tick" opacity="1" transform="translate(0.5,0)"><line stroke="currentColor" y2="6"/><text fill="currentColor" y="9" dy="0.71em">0</text></g><g class="tick" opacity="1" transform="translate(101.5,0)"><line stroke="currentColor" y2="6"/><text fill="currentColor" y="9" dy="0.71em">5</text></g><g class="tick" opacity="1" transform="translate(201.5,0)"><line stroke="currentColor" y2="6"/><text fill="currentColor" y="9" dy="0.71em">10</text></g><g class="tick" opacity="1" transform="translate(302.5,0)"><line stroke="currentColor" y2="6"/><text fill="currentColor" y="9" dy="0.71em">15</text></g><g class="tick" opacity="1" transform="translate(403.5,0)"><line stroke="currentColor" y2="6"/><text fill="currentColor" y="9" dy="0.71em">20</text></g><g class="tick" opacity="1" transform="translate(504.5,0)"><line stroke="currentColor" y2="6"/><text fill="currentColor" y="9" dy="0.71em">25</text></g><g class="tick" opacity="1" transform="translate(604.5,0)"><line stroke="currentColor" y2="6"/><text fill="currentColor" y="9" dy="0.71em">30</text></g><g class="tick" opacity="1" transform="translate(705.5,0)"><line stroke="currentColor" y2="6"/><text fill="currentColor" y="9" dy="0.71em">35</text></g><text x="705" dy="-5" text-anchor="end" style="font-family: Arial, sans-serif; font-size: 12px; fill: rgb(123, 123, 123); font-weight: bold;">Grasas</text></g><g fill="none" font-size="10" font-family="sans-serif" text-anchor="end"><path class="domain" stroke="currentColor" d="M-6,500.5H0.5V0.5H-6"/><g class="tick" opacity="1" transform="translate(0,500.5)"><line stroke="currentColor" x2="-6"/><text fill="currentColor" x="-9" dy="0.32em">0</text></g><g class="tick" opacity="1" transform="translate(0,464.5)"><line stroke="currentColor" x2="-6"/><text fill="currentColor" x="-9" dy="0.32em">50</text></g><g class="tick" opacity="1" transform="translate(0,429.5)"><line stroke="currentColor" x2="-6"/><text fill="currentColor" x="-9" dy="0.32em">100</text></g><g class="tick" opacity="1" transform="translate(0,393.5)"><line stroke="currentColor" x2="-6"/><text fill="currentColor" x="-9" dy="0.32em">150</text></g><g class="tick" opacity="1" transform="translate(0,357.5)"><line stroke="currentColor" x2="-6"/><text fill="currentColor" x="-9" dy="0.32em">200</text></g><g class="tick" opacity="1" transform="translate(0,321.5)"><line stroke="currentColor" x2="-6"/><text fill="currentColor" x="-9" dy="0.32em">250</text></g><g class="tick" opacity="1" transform="translate(0,286.5)"><line stroke="currentColor" x2="-6"/><text fill="currentColor" x="-9" dy="0.32em">300</text></g><g class="tick" opacity="1" transform="translate(0,250.5)"><line stroke="currentColor" x2="-6"/><text fill="currentColor" x="-9" dy="0.32em">350</text></g><g class="tick" opacity="1" transform="translate(0,214.5)"><line stroke="currentColor" x2="-6"/><text fill="currentColor" x="-9" dy="0.32em">400</text></g><g class="tick" opacity="1" transform="translate(0,179.5)"><line stroke="currentColor" x2="-6"/><text fill="currentColor" x="-9" dy="0.32em">450</text></g><g class="tick" opacity="1" transform="translate(0,143.5)"><line stroke="currentColor" x2="-6"/><text fill="currentColor" x="-9" dy="0.32em">500</text></g><g class="tick" opacity="1" transform="translate(0,107.5)"><line stroke="currentColor" x2="-6"/><text fill="currentColor" x="-9" dy="0.32em">550</text></g><g class="tick" opacity="1" transform="translate(0,71.5)"><line stroke="currentColor" x2="-6"/><text fill="currentColor" x="-9" dy="0.32em">600</text></g><g class="tick" opacity="1" transform="translate(0,36.5)"><line stroke="currentColor" x2="-6"/><text fill="currentColor" x="-9" dy="0.32em">650</text></g><g class="tick" opacity="1" transform="translate(0,0.5)"><line stroke="currentColor" x2="-6"/><text fill="currentColor" x="-9" dy="0.32em">700</text></g><text x="4" text-anchor="start" dominant-baseline="hanging" style="font-family: Arial, sans-serif; font-size: 12px; fill: rgb(123, 123, 123); font-weight: bold;">Calorias</text></g></g><g id="viz"><g><circle cx="36" cy="409" fill="rgb(234, 242, 251)" r="7.5" stroke="none"/></g><g><circle cx="0" cy="401" fill="rgb(247, 251, 255)" r="7.5" stroke="none"/></g><g><circle cx="42" cy="411" fill="rgb(231, 241, 250)" r="7.5" stroke="none"/></g><g><circle cx="56" cy="382" fill="rgb(231, 241, 250)" r="7.5" stroke="none"/></g><g><circle cx="302" cy="329" fill="rgb(159, 202, 226)" r="7.5" stroke="none"/></g><g><circle cx="624" cy="182" fill="rgb(117, 179, 215)" r="7.5" stroke="none"/></g><g><circle cx="262" cy="396" fill="rgb(55, 135, 192)" r="7.5" stroke="none"/></g><g><circle cx="16" cy="366" fill="rgb(243, 248, 254)" r="7.5" stroke="none"/></g><g><circle cx="105" cy="321" fill="rgb(227, 238, 249)" r="7.5" stroke="none"/></g><g><circle cx="145" cy="382" fill="rgb(197, 220, 238)" r="7.5" stroke="none"/></g><g><circle cx="109" cy="412" fill="rgb(197, 220, 238)" r="7.5" stroke="none"/></g><g><circle cx="145" cy="264" fill="rgb(225, 237, 248)" r="7.5" stroke="none"/></g><g><circle cx="248" cy="352" fill="rgb(159, 202, 226)" r="7.5" stroke="none"/></g><g><circle cx="6" cy="472" fill="rgb(243, 248, 254)" r="7.5" stroke="none"/></g><g><circle cx="0" cy="479" fill="rgb(247, 251, 255)" r="7.5" stroke="none"/></g><g><circle cx="153" cy="442" fill="rgb(12, 80, 151)" r="7.5" stroke="none"/></g><g><circle cx="151" cy="422" fill="rgb(117, 179, 215)" r="7.5" stroke="none"/></g><g><circle cx="105" cy="446" fill="rgb(121, 181, 217)" r="7.5" stroke="none"/></g><g><circle cx="346" cy="384" fill="rgb(8, 48, 107)" r="7.5" stroke="none"/></g><g><circle cx="0" cy="429" fill="rgb(247, 251, 255)" r="7.5" stroke="none"/></g><g><circle cx="544" cy="132" fill="rgb(178, 210, 232)" r="7.5" stroke="none"/></g><g><circle cx="161" cy="368" fill="rgb(185, 214, 234)" r="7.5" stroke="none"/></g><g><circle cx="8" cy="421" fill="rgb(243, 248, 254)" r="7.5" stroke="none"/></g><g><circle cx="0" cy="477" fill="rgb(247, 251, 255)" r="7.5" stroke="none"/></g><g><circle cx="26" cy="340" fill="rgb(243, 248, 254)" r="7.5" stroke="none"/></g><g><circle cx="145" cy="321" fill="rgb(218, 233, 246)" r="7.5" stroke="none"/></g><g><circle cx="0" cy="418" fill="rgb(247, 251, 255)" r="7.5" stroke="none"/></g><g><circle cx="163" cy="415" fill="rgb(197, 220, 238)" r="7.5" stroke="none"/></g><g><circle cx="73" cy="440" fill="rgb(159, 202, 226)" r="7.5" stroke="none"/></g><g><circle cx="30" cy="485" fill="rgb(138, 191, 221)" r="7.5" stroke="none"/></g><g><circle cx="457" cy="14" fill="rgb(212, 228, 244)" r="7.5" stroke="none"/></g><g><circle cx="20" cy="248" fill="rgb(245, 250, 254)" r="7.5" stroke="none"/></g><g><circle cx="133" cy="407" fill="rgb(209, 227, 243)" r="7.5" stroke="none"/></g><g><circle cx="346" cy="235" fill="rgb(191, 217, 236)" r="7.5" stroke="none"/></g><g><circle cx="262" cy="346" fill="rgb(155, 200, 225)" r="7.5" stroke="none"/></g><g><circle cx="0" cy="399" fill="rgb(247, 251, 255)" r="7.5" stroke="none"/></g><g><circle cx="73" cy="390" fill="rgb(223, 235, 247)" r="7.5" stroke="none"/></g><g id="labels"><g transform="translate(36,409)"><text x="0" y="0" text-anchor="middle" dominant-baseline="text-before-edge" transform="translate(0,-5.5)"><tspan x="0" y="0" dy="0" style="font-family: Arial, sans-serif; font-size: 10px; fill: black; font-weight: bold;">prote</tspan></text></g><g transform="translate(0,401)"><text x="0" y="0" text-anchor="middle" dominant-baseline="text-before-edge" transform="translate(0,-5.5)"><tspan x="0" y="0" dy="0" style="font-family: Arial, sans-serif; font-size: 10px; fill: black; font-weight: bold;">leche 200ml</tspan></text></g><g transform="translate(42,411)"><text x="0" y="0" text-anchor="middle" dominant-baseline="text-before-edge" transform="translate(0,-5.5)"><tspan x="0" y="0" dy="0" style="font-family: Arial, sans-serif; font-size: 10px; fill: black; font-weight: bold;">pan 1.5</tspan></text></g><g transform="translate(56,382)"><text x="0" y="0" text-anchor="middle" dominant-baseline="text-before-edge" transform="translate(0,-5.5)"><tspan x="0" y="0" dy="0" style="font-family: Arial, sans-serif; font-size: 10px; fill: black; font-weight: bold;">pan 2</tspan></text></g><g transform="translate(302,329)"><text x="0" y="0" text-anchor="middle" dominant-baseline="text-before-edge" transform="translate(0,-5.5)"><tspan x="0" y="0" dy="0" style="font-family: Arial, sans-serif; font-size: 10px; fill: black; font-weight: bold;">barra prote cacao</tspan></text></g><g transform="translate(624,182)"><text x="0" y="0" text-anchor="middle" dominant-baseline="text-before-edge" transform="translate(0,-5.5)"><tspan x="0" y="0" dy="0" style="font-family: Arial, sans-serif; font-size: 10px; fill: black; font-weight: bold;">mila 125</tspan></text></g><g transform="translate(262,396)"><text x="0" y="0" text-anchor="middle" dominant-baseline="text-before-edge" transform="translate(0,-5.5)"><tspan x="0" y="0" dy="0" style="font-family: Arial, sans-serif; font-size: 10px; fill: black; font-weight: bold;">salchicha parrillera</tspan></text></g><g transform="translate(16,366)"><text x="0" y="0" text-anchor="middle" dominant-baseline="text-before-edge" transform="translate(0,-5.5)"><tspan x="0" y="0" dy="0" style="font-family: Arial, sans-serif; font-size: 10px; fill: black; font-weight: bold;">leche prote 200</tspan></text></g><g transform="translate(105,321)"><text x="0" y="0" text-anchor="middle" dominant-baseline="text-before-edge" transform="translate(0,-5.5)"><tspan x="0" y="0" dy="0" style="font-family: Arial, sans-serif; font-size: 10px; fill: black; font-weight: bold;">ravioles 250</tspan></text></g><g transform="translate(145,382)"><text x="0" y="0" text-anchor="middle" dominant-baseline="text-before-edge" transform="translate(0,-5.5)"><tspan x="0" y="0" dy="0" style="font-family: Arial, sans-serif; font-size: 10px; fill: black; font-weight: bold;">yogurt natural sin endulzar 200</tspan></text></g><g transform="translate(109,412)"><text x="0" y="0" text-anchor="middle" dominant-baseline="text-before-edge" transform="translate(0,-5.5)"><tspan x="0" y="0" dy="0" style="font-family: Arial, sans-serif; font-size: 10px; fill: black; font-weight: bold;">yogurt natural sin endulzar 150</tspan></text></g><g transform="translate(145,264)"><text x="0" y="0" text-anchor="middle" dominant-baseline="text-before-edge" transform="translate(0,-5.5)"><tspan x="0" y="0" dy="0" style="font-family: Arial, sans-serif; font-size: 10px; fill: black; font-weight: bold;">pechuga a la plancha 200</tspan></text></g><g transform="translate(248,352)"><text x="0" y="0" text-anchor="middle" dominant-baseline="text-before-edge" transform="translate(0,-5.5)"><tspan x="0" y="0" dy="0" style="font-family: Arial, sans-serif; font-size: 10px; fill: black; font-weight: bold;">helado</tspan></text></g><g transform="translate(6,472)"><text x="0" y="0" text-anchor="middle" dominant-baseline="text-before-edge" transform="translate(0,-5.5)"><tspan x="0" y="0" dy="0" style="font-family: Arial, sans-serif; font-size: 10px; fill: black; font-weight: bold;">durazno</tspan></text></g><g transform="translate(0,479)"><text x="0" y="0" text-anchor="middle" dominant-baseline="text-before-edge" transform="translate(0,-5.5)"><tspan x="0" y="0" dy="0" style="font-family: Arial, sans-serif; font-size: 10px; fill: black; font-weight: bold;">mermelada bc</tspan></text></g><g transform="translate(153,442)"><text x="0" y="0" text-anchor="middle" dominant-baseline="text-before-edge" transform="translate(0,-5.5)"><tspan x="0" y="0" dy="0" style="font-family: Arial, sans-serif; font-size: 10px; fill: black; font-weight: bold;">finlandia 30 g</tspan></text></g><g transform="translate(151,422)"><text x="0" y="0" text-anchor="middle" dominant-baseline="text-before-edge" transform="translate(0,-5.5)"><tspan x="0" y="0" dy="0" style="font-family: Arial, sans-serif; font-size: 10px; fill: black; font-weight: bold;">salame 3 fetas</tspan></text></g><g transform="translate(105,446)"><text x="0" y="0" text-anchor="middle" dominant-baseline="text-before-edge" transform="translate(0,-5.5)"><tspan x="0" y="0" dy="0" style="font-family: Arial, sans-serif; font-size: 10px; fill: black; font-weight: bold;">queso port salud 2 fetas</tspan></text></g><g transform="translate(346,384)"><text x="0" y="0" text-anchor="middle" dominant-baseline="text-before-edge" transform="translate(0,-5.5)"><tspan x="0" y="0" dy="0" style="font-family: Arial, sans-serif; font-size: 10px; fill: black; font-weight: bold;">salsa crema scaraparo 40g</tspan></text></g><g transform="translate(0,429)"><text x="0" y="0" text-anchor="middle" dominant-baseline="text-before-edge" transform="translate(0,-5.5)"><tspan x="0" y="0" dy="0" style="font-family: Arial, sans-serif; font-size: 10px; fill: black; font-weight: bold;">fernet 40ml</tspan></text></g><g transform="translate(544,132)"><text x="0" y="0" text-anchor="middle" dominant-baseline="text-before-edge" transform="translate(0,-5.5)"><tspan x="0" y="0" dy="0" style="font-family: Arial, sans-serif; font-size: 10px; fill: black; font-weight: bold;">hamburguesa mac</tspan></text></g><g transform="translate(161,368)"><text x="0" y="0" text-anchor="middle" dominant-baseline="text-before-edge" transform="translate(0,-5.5)"><tspan x="0" y="0" dy="0" style="font-family: Arial, sans-serif; font-size: 10px; fill: black; font-weight: bold;">chipa 50g</tspan></text></g><g transform="translate(8,421)"><text x="0" y="0" text-anchor="middle" dominant-baseline="text-before-edge" transform="translate(0,-5.5)"><tspan x="0" y="0" dy="0" style="font-family: Arial, sans-serif; font-size: 10px; fill: black; font-weight: bold;">banana 100g</tspan></text></g><g transform="translate(0,477)"><text x="0" y="0" text-anchor="middle" dominant-baseline="text-before-edge" transform="translate(0,-5.5)"><tspan x="0" y="0" dy="0" style="font-family: Arial, sans-serif; font-size: 10px; fill: black; font-weight: bold;">frutilla 100g</tspan></text></g><g transform="translate(26,340)"><text x="0" y="0" text-anchor="middle" dominant-baseline="text-before-edge" transform="translate(0,-5.5)"><tspan x="0" y="0" dy="0" style="font-family: Arial, sans-serif; font-size: 10px; fill: black; font-weight: bold;">Helado proteico</tspan></text></g><g transform="translate(145,321)"><text x="0" y="0" text-anchor="middle" dominant-baseline="text-before-edge" transform="translate(0,-5.5)"><tspan x="0" y="0" dy="0" style="font-family: Arial, sans-serif; font-size: 10px; fill: black; font-weight: bold;">prote y yogurt</tspan></text></g><g transform="translate(0,418)"><text x="0" y="0" text-anchor="middle" dominant-baseline="text-before-edge" transform="translate(0,-5.5)"><tspan x="0" y="0" dy="0" style="font-family: Arial, sans-serif; font-size: 10px; fill: black; font-weight: bold;">fernet 50ml</tspan></text></g><g transform="translate(163,415)"><text x="0" y="0" text-anchor="middle" dominant-baseline="text-before-edge" transform="translate(0,-5.5)"><tspan x="0" y="0" dy="0" style="font-family: Arial, sans-serif; font-size: 10px; fill: black; font-weight: bold;">ojo de bife 100g</tspan></text></g><g transform="translate(73,440)"><text x="0" y="0" text-anchor="middle" dominant-baseline="text-before-edge" transform="translate(0,-5.5)"><tspan x="0" y="0" dy="0" style="font-family: Arial, sans-serif; font-size: 10px; fill: black; font-weight: bold;">espinacas a la crema</tspan></text></g><g transform="translate(30,485)"><text x="0" y="0" text-anchor="middle" dominant-baseline="text-before-edge" transform="translate(0,-5.5)"><tspan x="0" y="0" dy="0" style="font-family: Arial, sans-serif; font-size: 10px; fill: black; font-weight: bold;">ensalada 100g</tspan></text></g><g transform="translate(457,14)"><text x="0" y="0" text-anchor="middle" dominant-baseline="text-before-edge" transform="translate(0,-5.5)"><tspan x="0" y="0" dy="0" style="font-family: Arial, sans-serif; font-size: 10px; fill: black; font-weight: bold;">sandwich pollo y queso</tspan></text></g><g transform="translate(20,248)"><text x="0" y="0" text-anchor="middle" dominant-baseline="text-before-edge" transform="translate(0,-5.5)"><tspan x="0" y="0" dy="0" style="font-family: Arial, sans-serif; font-size: 10px; fill: black; font-weight: bold;">arroz 100g</tspan></text></g><g transform="translate(133,407)"><text x="0" y="0" text-anchor="middle" dominant-baseline="text-before-edge" transform="translate(0,-5.5)"><tspan x="0" y="0" dy="0" style="font-family: Arial, sans-serif; font-size: 10px; fill: black; font-weight: bold;">barra low carb</tspan></text></g><g transform="translate(346,235)"><text x="0" y="0" text-anchor="middle" dominant-baseline="text-before-edge" transform="translate(0,-5.5)"><tspan x="0" y="0" dy="0" style="font-family: Arial, sans-serif; font-size: 10px; fill: black; font-weight: bold;">tarta de zapallo 260g</tspan></text></g><g transform="translate(262,346)"><text x="0" y="0" text-anchor="middle" dominant-baseline="text-before-edge" transform="translate(0,-5.5)"><tspan x="0" y="0" dy="0" style="font-family: Arial, sans-serif; font-size: 10px; fill: black; font-weight: bold;">alfajor block 40</tspan></text></g><g transform="translate(0,399)"><text x="0" y="0" text-anchor="middle" dominant-baseline="text-before-edge" transform="translate(0,-5.5)"><tspan x="0" y="0" dy="0" style="font-family: Arial, sans-serif; font-size: 10px; fill: black; font-weight: bold;">pinta cerveza</tspan></text></g><g transform="translate(73,390)"><text x="0" y="0" text-anchor="middle" dominant-baseline="text-before-edge" transform="translate(0,-5.5)"><tspan x="0" y="0" dy="0" style="font-family: Arial, sans-serif; font-size: 10px; fill: black; font-weight: bold;">atun 100g</tspan></text></g></g></g></g><text y="4" x="4" style="font-family: Arial, sans-serif; font-size: 12px; fill: black; font-weight: bold; dominant-baseline: hanging;"/></g></g><g id="grid"><rect x="0" y="0" width="805" height="600" fill="none" stroke="#ccc"/></g><clipPath id="serieClipPath"><rect x="-50" y="-50" width="805" height="600"/></clipPath></svg>