<svg xmlns="http://www.w3.org/2000/svg" width="805" height="600"><rect width="805" height="600" x="0" y="0" fill="#FFFFFF" id="background"/><g transform="translate(402.5,300)" id="viz"><path fill="#cccccc" display="" d="M0.9999920729479009,-113.99561402025098A114,114,0,0,1,97.10364015104699,-59.72338795996067L49.14446763558533,-30.802943054437286A58,58,0,0,0,0.9999920729479037,-57.991378806285Z"><title>desayuno</title></path><path fill="#cccccc" display="" d="M98.13642688730576,-58.01070347610424A114,114,0,0,1,45.29620114069908,104.61478940485104L23.49542654473435,53.02796367465936A58,58,0,0,0,50.17725437184409,-29.09025857058085Z"><title>almuerzo</title></path><path fill="#cccccc" display="" d="M43.453968438059775,105.39332344595698A114,114,0,0,1,-109.99628323051256,29.946914289670328L-55.83196329333677,15.70961090579571A58,58,0,0,0,21.653193842095032,53.80649771576531Z"><title>merienda</title></path><path fill="#cccccc" display="" d="M-110.50471586849558,28.01263591351344A114,114,0,0,1,-0.9999920729479655,-113.99561402025098L-0.9999920729479237,-57.991378806285A58,58,0,0,0,-56.3403959313198,13.77533252963878Z"><title>cena</title></path><path fill="rgb(238, 187, 188)" display="" d="M0.9999920729479002,-171.99709304477807A172,172,0,0,1,56.8576818549254,-162.33053937594147L38.03844422268854,-109.58593322647489A116,116,0,0,0,0.99999207294792,-115.99568964342616Z"><title>22%</title></path><path fill="rgb(254, 243, 238)" display="" d="M58.74135565010575,-161.65844591727273A172,172,0,0,1,74.99135548888252,-154.79113864152578L50.282354608972135,-104.53556722464167A116,116,0,0,0,39.92211801786893,-108.91383976780611Z"><title>91%</title></path><path fill="rgb(243, 203, 203)" display="" d="M76.78613811881701,-153.90870343420465A172,172,0,0,1,122.64765370450218,-120.58836196242369L82.48726621425594,-81.5588800346012A116,116,0,0,0,52.07713723890667,-103.65313201732054Z"><title>47%</title></path><path fill="rgb(247, 219, 217)" display="" d="M124.04151779249194,-119.1541097223881A172,172,0,0,1,135.5942412352644,-105.82155613972479L91.24660410693448,-71.62441789608044A116,116,0,0,0,83.8811303022457,-80.12462779456564Z"><title>43%</title></path><path fill="rgb(248, 219, 217)" display="" d="M136.81552731326016,-104.23776420278095A172,172,0,0,1,146.77315046685862,-89.67520449953194L98.8164029713829,-60.756221934854295A116,116,0,0,0,92.46789018493025,-70.0406259591366Z"><title>9%</title></path><path fill="rgb(254, 242, 237)" display="" d="M147.8059372031174,-87.96252001567551A172,172,0,0,1,168.372762559364,-35.13705776140105L113.48676368899875,-24.015712927109938A116,116,0,0,0,99.84918970764166,-59.043537450997874Z"><title>50%</title></path><path fill="#cccccc" display="" d="M168.76994034418155,-33.17690817754731A172,172,0,0,1,166.60066387512848,42.757675291887175L112.4390827166155,28.521091806698035A116,116,0,0,0,113.88394147381628,-22.055563343256193Z"><title>26%</title></path><path fill="rgb(242, 198, 199)" display="" d="M166.09223123714548,44.6919536680441A172,172,0,0,1,160.64070896671902,61.47001401227985L108.45501555163929,41.15227334781979A116,116,0,0,0,111.93065007863248,30.455370182854946Z"><title>60%</title></path><path fill="rgb(204, 67, 82)" display="" d="M159.9150993080089,63.33372729683335A172,172,0,0,1,152.58655674862632,79.38099709375183L103.05707139837769,53.24697207156179A116,116,0,0,0,107.72940589292918,43.01598663237329Z"><title>91%</title></path><path fill="#cccccc" display="" d="M151.65322950076734,81.14984893385562A172,172,0,0,1,130.6415854015909,111.87839900427083L88.31854861777809,75.20527887089554A116,116,0,0,0,102.12374415051872,55.015823911665585Z"><title>0%</title></path><path fill="rgb(238, 187, 189)" display="" d="M129.33187431593063,113.38988617124687A172,172,0,0,1,117.03685253466504,126.04116450104334L79.1701091745508,84.78262683645576A116,116,0,0,0,87.00883753211782,76.71676603787157Z"><title>75%</title></path><path fill="rgb(229, 155, 160)" display="" d="M115.56338193928299,127.39350358144407A172,172,0,0,1,85.44737276812097,149.27406501809273L57.909638889315964,100.5110626931634A116,116,0,0,0,77.69663857916875,86.13496591685647Z"><title>44%</title></path><path fill="rgb(241, 196, 197)" display="" d="M83.70589441878047,150.2575230713989A172,172,0,0,1,67.87444304714263,158.0413236499878L46.07477079117528,106.45710636937612A116,116,0,0,0,56.16816053997543,101.49452074646959Z"><title>57%</title></path><path fill="rgb(238, 187, 188)" display="" d="M66.0322103445034,158.81985769109372A172,172,0,0,1,10.817470703581455,171.65949530269847L7.620417176752131,115.74942437028471A116,116,0,0,0,44.23253808853598,107.23564041048206Z"><title>22%</title></path><path fill="rgb(243, 203, 203)" display="" d="M8.820748323977007,171.77367201933205A172,172,0,0,1,-66.03221034450337,158.81985769109372L-44.23253808853597,107.23564041048206A116,116,0,0,0,5.623694797147636,115.8636010869183Z"><title>47%</title></path><path fill="rgb(251, 231, 228)" display="" d="M-67.87444304714268,158.0413236499878A172,172,0,0,1,-83.7058944187805,150.2575230713989L-56.16816053997548,101.49452074646956A116,116,0,0,0,-46.07477079117532,106.4571063693761Z"><title>77%</title></path><path fill="rgb(255, 245, 240)" display="" d="M-85.44737276812106,149.2740650180927A172,172,0,0,1,-100.2883441476418,139.73635184920266L-67.3715451206456,94.43026478866196A116,116,0,0,0,-57.90963888931598,100.5110626931634Z"><title>100%</title></path><path fill="rgb(251, 232, 228)" display="" d="M-101.90636531015201,138.56079066342633A172,172,0,0,1,-115.56338193928309,127.393503581444L-77.69663857916883,86.13496591685642A116,116,0,0,0,-68.98956628315575,93.25470360288567Z"><title>10%</title></path><path fill="rgb(243, 204, 204)" display="" d="M-117.03685253466516,126.04116450104323A172,172,0,0,1,-141.41432792325978,97.90805818732565L-95.18674322496828,66.29844579041016A116,116,0,0,0,-79.17010917455084,84.7826268364557Z"><title>69%</title></path><path fill="rgb(247, 219, 217)" display="" d="M-142.54320541225175,96.25712748051754A172,172,0,0,1,-159.91509930800896,63.33372729683318L-107.72940589292922,43.01598663237314A116,116,0,0,0,-96.3156207139602,64.6475150836021Z"><title>43%</title></path><path fill="rgb(247, 215, 214)" display="" d="M-160.64070896671907,61.47001401227964A172,172,0,0,1,-166.0922312371455,44.69195366804395L-111.93065007863251,30.455370182854818A116,116,0,0,0,-108.45501555163933,41.15227334781968Z"><title>89%</title></path><path fill="rgb(236, 177, 180)" display="" d="M-166.60066387512848,42.75767529188714A172,172,0,0,1,-171.8983955722754,5.911141994363658L-115.91982994486203,4.3119630743163215A116,116,0,0,0,-112.4390827166155,28.52109180669804Z"><title>100%</title></path><path fill="#cccccc" display="" d="M-171.9555072211322,3.911973456346006A172,172,0,0,1,-168.76994034418158,-33.17690817754715L-113.8839414738163,-22.055563343256118A116,116,0,0,0,-115.97694159371882,2.3127945362987514Z"><title>0%</title></path><path fill="rgb(251, 231, 227)" display="" d="M-168.37276255936402,-35.13705776140094A172,172,0,0,1,-163.8879706688412,-52.1989757567047L-110.62747104231187,-34.89359039684007A116,116,0,0,0,-113.48676368899876,-24.015712927109835Z"><title>41%</title></path><path fill="rgb(218, 117, 127)" display="" d="M-163.26994157927894,-54.10107371114595A172,172,0,0,1,-156.86947066148377,-70.54054985882863L-105.92880234285866,-47.276726136732236A116,116,0,0,0,-110.00944195274961,-36.79568835128124Z"><title>39%</title></path><path fill="rgb(206, 73, 88)" display="" d="M-156.03864722151286,-72.35979942813726A172,172,0,0,1,-124.04151779249209,-119.15410972238797L-83.88113030224577,-80.12462779456555A116,116,0,0,0,-105.09797890288782,-49.09597570604081Z"><title>26%</title></path><path fill="rgb(249, 224, 221)" display="" d="M-122.64765370450229,-120.58836196242356A172,172,0,0,1,-109.65043739024597,-132.51709919903828L-74.20085160641568,-89.1640825718668A116,116,0,0,0,-82.48726621425602,-81.55888003460112Z"><title>94%</title></path><path fill="rgb(243, 203, 203)" display="" d="M-108.10216644228953,-133.78311407081065A172,172,0,0,1,-93.82989584788615,-144.1525256288451L-63.553251334318446,-97.04114717395375A116,116,0,0,0,-72.6525806584593,-90.43009744363911Z"><title>47%</title></path><path fill="rgb(219, 121, 130)" display="" d="M-92.1474021195449,-145.23379869238045A172,172,0,0,1,-76.78613811881735,-153.90870343420448L-52.07713723890684,-103.65313201732044A116,116,0,0,0,-61.87075760597728,-98.12242023748907Z"><title>75%</title></path><path fill="rgb(240, 194, 195)" display="" d="M-74.99135548888277,-154.79113864152563A172,172,0,0,1,-20.599664993216145,-170.76197996675742L-14.215986063646987,-115.12560853362815A116,116,0,0,0,-50.282354608972355,-104.53556722464157Z"><title>65%</title></path><path fill="rgb(217, 113, 123)" display="" d="M-18.61271727328194,-170.98996097930683A172,172,0,0,1,-0.9999920729482649,-171.99709304477807L-0.9999920729481147,-115.99568964342615A116,116,0,0,0,-12.229038343712865,-115.35358954617753Z"><title>91%</title></path><path fill="rgb(238, 187, 188)" display="" d="M0.9999920729479221,-229.99782611114838A230,230,0,0,1,76.34879300792927,-216.95820290146295L57.5297918700547,-164.21425957385122A174,174,0,0,0,0.9999920729479173,-173.9971264586115Z"><title>13%</title></path><path fill="rgb(254, 243, 238)" display="" d="M78.23246680310966,-216.28610944279419A230,230,0,0,1,100.58250280534052,-206.8409053582334L75.87381243425733,-156.5859654844301A174,174,0,0,0,59.41346566523509,-163.54216611518245Z"><title>2%</title></path><path fill="rgb(243, 203, 203)" display="" d="M102.37728543527507,-205.95847015091226A230,230,0,0,1,164.24182408573122,-161.01125184592448L124.0819412761428,-121.98226038709011A174,174,0,0,0,77.66859506419186,-155.70353027710897Z"><title>2%</title></path><path fill="rgb(247, 219, 217)" display="" d="M165.63568817372098,-159.5769996058889A230,230,0,0,1,181.5251520156614,-141.23958080400487L137.17807218759867,-107.04287230308222A174,174,0,0,0,125.47580536413255,-120.54800814705452Z"><title>17%</title></path><path fill="rgb(248, 219, 217)" display="" d="M182.7464380936572,-139.655788867061A230,230,0,0,1,196.4420219821261,-119.62663582820458L148.48587714126566,-90.70801667762865A174,174,0,0,0,138.39935826559446,-105.45908036613838Z"><title>6%</title></path><path fill="rgb(254, 242, 237)" display="" d="M197.47480871838488,-117.91395134434815A230,230,0,0,1,225.21826956828846,-46.655450406846846L170.33296042986424,-35.53424533036132A174,174,0,0,0,149.51866387752443,-88.99533219377221Z"><title>38%</title></path><path fill="rgb(190, 18, 39)" display="" d="M225.61544735310602,-44.695300822993104A230,230,0,0,1,227.79909358095307,31.74228983070042L172.36840030453797,23.77255931645882A174,174,0,0,0,170.73013821468177,-33.57409574650757Z"><title>43%</title></path><path fill="rgb(206, 73, 88)" display="" d="M227.51446616068077,33.721917021730015A230,230,0,0,1,222.69589043067634,57.50252503402092L168.53498990061632,43.26612045468323A174,174,0,0,0,172.08377288426567,25.75218650748842Z"><title>16%</title></path><path fill="rgb(242, 198, 199)" display="" d="M222.1874577926933,59.43680341017785A230,230,0,0,1,214.68950577916476,82.51312688474471L162.50446816229137,62.19564154577737A174,174,0,0,0,168.0265572626333,45.20039883084015Z"><title>33%</title></path><path fill="rgb(204, 67, 82)" display="" d="M213.96389612045465,84.3768401692982A230,230,0,0,1,203.88431509453807,106.44804393896169L154.3554521629166,80.31434733334738A174,174,0,0,0,161.77885850358126,64.05935483033088Z"><title>1%</title></path><path fill="rgb(232, 166, 170)" display="" d="M202.95098784667908,108.21689577906548A230,230,0,0,1,190.42118056177986,128.99524794913197L144.19417678835768,97.38603277846289A174,174,0,0,0,153.42212491505762,82.08319917345118Z"><title>10%</title></path><path fill="rgb(239, 190, 191)" display="" d="M189.29230307278792,130.64617865594005A230,230,0,0,1,174.47561472873528,149.86080162947857L132.15310980278986,113.18814235356884A174,174,0,0,0,143.06529929936576,99.03696348527099Z"><title>22%</title></path><path fill="rgb(238, 187, 189)" display="" d="M173.16590364307496,151.37228879645468A230,230,0,0,1,156.255492431638,168.77269057802664L118.38922492880857,127.51467139414183A174,174,0,0,0,130.84339871712956,114.69962952054493Z"><title>9%</title></path><path fill="rgb(229, 155, 160)" display="" d="M154.78202183625595,170.12502965842737A230,230,0,0,1,113.96824287043624,199.77797580570603L86.43085504809423,151.01558626729667A174,174,0,0,0,116.91575433342653,128.86701047454255Z"><title>24%</title></path><path fill="rgb(241, 196, 197)" display="" d="M112.2267645210957,200.76143385901221A230,230,0,0,1,90.45239457437523,211.46717077542212L68.65299626678393,159.88360173448982A174,174,0,0,0,84.68937669875372,151.99904432060285Z"><title>34%</title></path><path fill="rgb(238, 187, 188)" display="" d="M88.61016187173598,212.24570481652802A230,230,0,0,1,14.128663583509375,229.56563520122958L10.931650232863023,173.6562668698897A174,174,0,0,0,66.81076356414465,160.66213577559574Z"><title>13%</title></path><path fill="rgb(243, 203, 203)" display="" d="M12.131941203904892,229.67981191786316A230,230,0,0,1,-88.61016187173597,212.24570481652802L-66.81076356414464,160.66213577559574A174,174,0,0,0,8.934927853258543,173.77044358652324Z"><title>2%</title></path><path fill="rgb(251, 231, 228)" display="" d="M-90.4523945743753,211.46717077542206A230,230,0,0,1,-112.22676452109577,200.76143385901216L-84.68937669875376,151.99904432060285A174,174,0,0,0,-68.65299626678397,159.8836017344898Z"><title>7%</title></path><path fill="rgb(255, 245, 240)" display="" d="M-113.9682428704363,199.77797580570598A230,230,0,0,1,-134.38031966620667,186.65993058610115L-101.46393429238528,141.35441287031162A174,174,0,0,0,-86.43085504809429,151.01558626729664Z"><title>0%</title></path><path fill="rgb(251, 232, 228)" display="" d="M-135.99834082871686,185.48436940032482A230,230,0,0,1,-154.7820218362561,170.12502965842722L-116.91575433342663,128.86701047454244A174,174,0,0,0,-103.08195545489545,140.17885168453532Z"><title>79%</title></path><path fill="rgb(243, 204, 204)" display="" d="M-156.25549243163812,168.7726905780265A230,230,0,0,1,-189.29230307278803,130.6461786559399L-143.06529929936582,99.03696348527086A174,174,0,0,0,-118.38922492880867,127.51467139414173Z"><title>26%</title></path><path fill="rgb(247, 219, 217)" display="" d="M-190.42118056177998,128.9952479491318A230,230,0,0,1,-213.96389612045473,84.37684016929794L-161.77885850358135,64.05935483033068A174,174,0,0,0,-144.19417678835777,97.38603277846278Z"><title>17%</title></path><path fill="rgb(247, 215, 214)" display="" d="M-214.68950577916485,82.51312688474445A230,230,0,0,1,-222.18745779269338,59.43680341017762L-168.02655726263333,45.20039883083997A174,174,0,0,0,-162.50446816229146,62.19564154577718Z"><title>0%</title></path><path fill="rgb(236, 177, 180)" display="" d="M-222.69589043067634,57.502525034020906A230,230,0,0,1,-229.87547552373096,7.567413873878542L-173.8976133581388,5.968255050118154A174,174,0,0,0,-168.53498990061632,43.26612045468321Z"><title>0%</title></path><path fill="rgb(246, 214, 212)" display="" d="M-229.93258717258774,5.56824533586093A230,230,0,0,1,-229.2397065140981,-18.685742086686947L-173.44443249976428,-13.89348173910018A174,174,0,0,0,-173.9547250069956,3.969086512100545Z"><title>22%</title></path><path fill="rgb(240, 192, 193)" display="" d="M-229.06855785385548,-20.678389752465268A230,230,0,0,1,-225.61544735310605,-44.69530082299292L-170.7301382146818,-33.57409574650743A174,174,0,0,0,-173.2732838395217,-15.886129404878497Z"><title>11%</title></path><path fill="rgb(251, 231, 227)" display="" d="M-225.21826956828852,-46.655450406846676A230,230,0,0,1,-219.04994580150847,-70.12218796041803L-165.79011547987554,-52.81702007089699A174,174,0,0,0,-170.33296042986427,-35.53424533036119Z"><title>33%</title></path><path fill="rgb(218, 117, 127)" display="" d="M-218.4319167119462,-72.02428591485925A230,230,0,0,1,-209.62879321267098,-94.63492513971373L-158.68876504648478,-71.37139376544047A174,174,0,0,0,-165.17208639031327,-54.719118025338204Z"><title>28%</title></path><path fill="rgb(206, 73, 88)" display="" d="M-208.79796977270013,-96.45417470902235A230,230,0,0,1,-165.63568817372115,-159.57699960588872L-125.47580536413267,-120.5480081470544A174,174,0,0,0,-157.8579416065139,-73.19064333474908Z"><title>16%</title></path><path fill="rgb(249, 224, 221)" display="" d="M-164.24182408573137,-161.0112518459243A230,230,0,0,1,-146.36562375130228,-177.4178801132857L-110.91648344923631,-134.06540828735533A174,174,0,0,0,-124.08194127614291,-121.98226038708998Z"><title>2%</title></path><path fill="rgb(243, 203, 203)" display="" d="M-144.817352803346,-178.68389498505792A230,230,0,0,1,-125.18745958591248,-192.94584722772743L-94.91119554767948,-145.83506080401293A174,174,0,0,0,-109.36821250128003,-135.33142315912758Z"><title>2%</title></path><path fill="rgb(219, 121, 130)" display="" d="M-123.50496585757145,-194.02712029126266A230,230,0,0,1,-102.37728543527535,-205.95847015091212L-77.66859506419209,-155.70353027710888A174,174,0,0,0,-93.2287018193384,-146.9163338675482Z"><title>9%</title></path><path fill="rgb(240, 194, 195)" display="" d="M-100.58250280534101,-206.84090535823316A230,230,0,0,1,-27.211250330136572,-228.38464890502303L-20.827651621887114,-172.74897663348776A174,174,0,0,0,-75.8738124342577,-156.58596548442992Z"><title>2%</title></path><path fill="rgb(217, 113, 123)" display="" d="M-25.224302610202614,-228.6126299175724A230,230,0,0,1,-0.9999920729482568,-229.99782611114838L-0.9999920729481705,-173.9971264586115A174,174,0,0,0,-18.84070390195311,-172.97695764603714Z"><title>1%</title></path><path fill="rgb(238, 187, 188)" display="" d="M0.9999920729479248,-287.99826391118063A288,288,0,0,1,95.83980493685942,-271.5855883320482L77.02089809212603,-218.8419092794667A232,232,0,0,0,0.9999920729479359,-231.99784485174436Z"><title>65%</title></path><path fill="rgb(254, 243, 238)" display="" d="M97.7234787320398,-270.91349487337936A288,288,0,0,1,126.17351984405971,-258.8904071033932L101.46495327657335,-208.63571903339752A232,232,0,0,0,78.90457188730645,-218.16981582079794Z"><title>7%</title></path><path fill="rgb(243, 203, 203)" display="" d="M127.96830247399424,-258.0079718960721A288,288,0,0,1,205.83578272207833,-201.43393594722156L165.67610113472657,-162.40514004426046A232,232,0,0,0,103.25973590650791,-207.75328382607634Z"><title>51%</title></path><path fill="rgb(247, 219, 217)" display="" d="M207.22964681006812,-199.99968370718594A288,288,0,0,1,227.4558289739822,-176.65742516452167L183.10897134822602,-142.46088800718093A232,232,0,0,0,167.06996522271632,-160.9708878042249Z"><title>39%</title></path><path fill="rgb(248, 219, 217)" display="" d="M228.67711505197795,-175.07363322757783A288,288,0,0,1,246.11064064635133,-149.57791468208973L198.1547360911205,-120.65944042907867A232,232,0,0,0,184.33025742622175,-140.87709607023712Z"><title>85%</title></path><path fill="rgb(254, 242, 237)" display="" d="M247.14342738261013,-147.8652301982333A288,288,0,0,1,282.06348719182415,-58.17378441521279L227.17845305780457,-47.05263506184204A232,232,0,0,0,199.18752282737924,-118.94675594522228Z"><title>13%</title></path><path fill="rgb(190, 18, 39)" display="" d="M282.4606649766417,-56.21363483135904A288,288,0,0,1,285.20917055390635,39.99661275599174L229.77875501455867,32.02692217431188A232,232,0,0,0,227.5756308426221,-45.0924854779883Z"><title>32%</title></path><path fill="rgb(206, 73, 88)" display="" d="M284.9245431336341,41.97623994702134A288,288,0,0,1,278.790831420314,72.24729971403806L224.6302022649887,58.010966466610995A232,232,0,0,0,229.49412759428637,34.00654936534147Z"><title>58%</title></path><path fill="rgb(242, 198, 199)" display="" d="M278.282398782331,74.18157809019499A288,288,0,0,1,268.73802744353105,103.55613263230697L216.55325130127494,83.23874909467861A232,232,0,0,0,224.12176962700568,59.94524484276791Z"><title>7%</title></path><path fill="rgb(204, 67, 82)" display="" d="M268.0124177848209,105.41984591686048A288,288,0,0,1,255.18181229717703,133.51495299301993L205.65319753133392,107.38138733103679A232,232,0,0,0,215.82764164256483,85.10246237923212Z"><title>8%</title></path><path fill="rgb(232, 166, 170)" display="" d="M254.24848504931805,135.28380483312372A288,288,0,0,1,238.29891197724385,161.733201756664L192.07213982554072,130.1241449648678A232,232,0,0,0,204.71987028347493,109.15023917114058Z"><title>90%</title></path><path fill="rgb(239, 190, 191)" display="" d="M237.17003448825193,163.38413246347207A288,288,0,0,1,218.30942090847032,187.84301089635554L175.98712804064124,151.1705353698496A232,232,0,0,0,190.94326233654877,131.7750756716759Z"><title>78%</title></path><path fill="rgb(238, 187, 189)" display="" d="M216.99970982280996,189.35449806333165A288,288,0,0,1,195.47393267692425,211.50399912015206L157.60785490410666,170.24618666074744A232,232,0,0,0,174.6774169549809,152.68202253682568Z"><title>16%</title></path><path fill="rgb(229, 155, 160)" display="" d="M194.00046208154222,212.85633820055278A288,288,0,0,1,142.4889677805715,250.28162949131374L114.95171793509553,201.519484278246A232,232,0,0,0,156.1343843087246,171.59852574114817Z"><title>32%</title></path><path fill="rgb(241, 196, 197)" display="" d="M140.74748943123097,251.26508754461994A288,288,0,0,1,113.03023116324903,264.8927459240485L91.23094208216382,213.30943534405802A232,232,0,0,0,113.21023958575498,202.5029423315522Z"><title>9%</title></path><path fill="rgb(238, 187, 188)" display="" d="M111.1879984606098,265.6712799651544A288,288,0,0,1,17.439839607033154,287.47148031497136L14.242842275113265,231.56239211911387A232,232,0,0,0,89.38870937952456,214.08796938516394Z"><title>65%</title></path><path fill="rgb(243, 203, 203)" display="" d="M15.443117227428669,287.5856570316049A288,288,0,0,1,-111.18799846060978,265.6712799651544L-89.38870937952453,214.08796938516397A232,232,0,0,0,12.246119895508754,231.67656883574745Z"><title>51%</title></path><path fill="rgb(251, 231, 228)" display="" d="M-113.03023116324911,264.8927459240484A288,288,0,0,1,-140.74748943123106,251.26508754461992L-113.21023958575508,202.50294233155213A232,232,0,0,0,-91.23094208216389,213.309435344058Z"><title>17%</title></path><path fill="rgb(255, 245, 240)" display="" d="M-142.48896778057158,250.2816294913137A288,288,0,0,1,-168.47212163157255,233.58327044751434L-135.5559011862376,188.2779797363117A232,232,0,0,0,-114.95171793509554,201.51948427824598Z"><title>0%</title></path><path fill="rgb(251, 232, 228)" display="" d="M-170.0901427940827,232.407709261738A288,288,0,0,1,-194.0004620815424,212.8563382005526L-156.13438430872478,171.59852574114802A232,232,0,0,0,-137.17392234874774,187.10241855053542Z"><title>10%</title></path><path fill="rgb(243, 204, 204)" display="" d="M-195.47393267692442,211.5039991201519A288,288,0,0,1,-237.17003448825204,163.3841324634719L-190.9432623365489,131.77507567167575A232,232,0,0,0,-157.60785490410674,170.24618666074736Z"><title>5%</title></path><path fill="rgb(247, 219, 217)" display="" d="M-238.298911977244,161.73320175666382A288,288,0,0,1,-268.0124177848211,105.41984591686015L-215.82764164256494,85.10246237923182A232,232,0,0,0,-192.0721398255408,130.1241449648677Z"><title>39%</title></path><path fill="rgb(247, 215, 214)" display="" d="M-268.73802744353117,103.55613263230666A288,288,0,0,1,-278.2823987823311,74.18157809019472L-224.12176962700576,59.94524484276765A232,232,0,0,0,-216.55325130127505,83.23874909467838Z"><title>11%</title></path><path fill="rgb(236, 177, 180)" display="" d="M-278.790831420314,72.24729971403804A288,288,0,0,1,-287.85226032926016,9.223677321752898L-231.87467864234077,7.624526510623308A232,232,0,0,0,-224.6302022649887,58.01096646661101Z"><title>0%</title></path><path fill="rgb(246, 214, 212)" display="" d="M-287.90937197811695,7.224508783735289A288,288,0,0,1,-287.0273830981981,-23.649130043201097L-231.2323886476739,-18.856893707371324A232,232,0,0,0,-231.93179029119756,5.625357972605772Z"><title>78%</title></path><path fill="rgb(240, 192, 193)" display="" d="M-286.8562344379555,-25.641777708979415A288,288,0,0,1,-282.46066497664174,-56.213634831358824L-227.57563084262213,-45.09248547798815A232,232,0,0,0,-231.0612399874313,-20.84954137314957Z"><title>89%</title></path><path fill="rgb(251, 231, 227)" display="" d="M-282.0634871918242,-58.173784415212566A288,288,0,0,1,-274.2116401192009,-88.04530892181504L-220.95207665746472,-70.74022774033061A232,232,0,0,0,-227.1784530578046,-47.052635061841826Z"><title>26%</title></path><path fill="rgb(218, 117, 127)" display="" d="M-273.5936110296386,-89.94740687625624A288,288,0,0,1,-262.38784718015,-118.72917776252916L-211.44807425042575,-95.46576295084247A232,232,0,0,0,-220.33404756790247,-72.64232569477174Z"><title>33%</title></path><path fill="rgb(206, 73, 88)" display="" d="M-261.55702374017915,-120.54842733183779A288,288,0,0,1,-207.22964681006835,-199.99968370718574L-167.0699652227165,-160.97088780422476A232,232,0,0,0,-210.6172508104549,-97.28501252015101Z"><title>58%</title></path><path fill="rgb(249, 224, 221)" display="" d="M-205.83578272207856,-201.43393594722133A288,288,0,0,1,-183.08062320508958,-222.31843244957446L-147.63166052195072,-178.96617784243898A232,232,0,0,0,-165.67610113472676,-162.40514004426026Z"><title>4%</title></path><path fill="rgb(243, 203, 203)" display="" d="M-181.5323522571332,-223.5844473213468A288,288,0,0,1,-156.54486369090463,-241.7389204327596L-126.26875135275485,-194.62837005898234A232,232,0,0,0,-146.08338957399437,-180.2321927142113Z"><title>51%</title></path><path fill="rgb(219, 121, 130)" display="" d="M-154.8623699625634,-242.820193496295A288,288,0,0,1,-127.96830247399474,-258.0079718960718L-103.25973590650825,-207.7532838260762A232,232,0,0,0,-124.58625762441372,-195.70964312251763Z"><title>16%</title></path><path fill="rgb(240, 194, 195)" display="" d="M-126.17351984406021,-258.890407103393A288,288,0,0,1,-33.822802009231054,-286.0070245015747L-27.43923528618468,-230.37163099415994A232,232,0,0,0,-101.4649532765738,-208.6357190333973Z"><title>33%</title></path><path fill="rgb(217, 113, 123)" display="" d="M-31.83585428929689,-286.2350055141241A288,288,0,0,1,-0.9999920729484716,-287.99826391118063L-0.999992072948325,-231.99784485174436A232,232,0,0,0,-25.45228756625059,-230.59961200670935Z"><title>8%</title></path></g><g id="labels" transform="translate(402.5,300)" text-anchor="middle"><text transform="rotate(90) translate(29,0) rotate(180)"><tspan x="0" y="4" style="font-family: Arial, sans-serif; font-size: 10px; fill: black; font-weight: normal; font-style: italic;"/></text><text transform="rotate(-60.54545454545455) translate(87,0) rotate(0)"><tspan x="0" y="4" style="font-family: Arial, sans-serif; font-size: 10px; fill: black; font-weight: normal; font-style: italic;">desayuno</tspan></text><text transform="rotate(18) translate(87,0) rotate(0)"><tspan x="0" y="4" style="font-family: Arial, sans-serif; font-size: 10px; fill: black; font-weight: normal; font-style: italic;">almuerzo</tspan></text><text transform="rotate(116.18181818181819) translate(87,0) rotate(180)"><tspan x="0" y="4" style="font-family: Arial, sans-serif; font-size: 10px; fill: black; font-weight: normal; font-style: italic;">merienda</tspan></text><text transform="rotate(217.63636363636363) translate(87,0) rotate(180)"><tspan x="0" y="4" style="font-family: Arial, sans-serif; font-size: 10px; fill: black; font-weight: normal; font-style: italic;">cena</tspan></text><text transform="rotate(-80.18181818181819) translate(145,0) rotate(0)"><tspan x="0" y="4" style="font-family: Arial, sans-serif; font-size: 10px; fill: black; font-weight: normal; font-style: italic;">22%</tspan></text><text transform="rotate(-67.0909090909091) translate(145,0) rotate(0)"><tspan x="0" y="4" style="font-family: Arial, sans-serif; font-size: 10px; fill: black; font-weight: normal; font-style: italic;">91%</tspan></text><text transform="rotate(-54) translate(145,0) rotate(0)"><tspan x="0" y="4" style="font-family: Arial, sans-serif; font-size: 10px; fill: black; font-weight: normal; font-style: italic;">47%</tspan></text><text transform="rotate(-40.9090909090909) translate(145,0) rotate(0)"><tspan x="0" y="4" style="font-family: Arial, sans-serif; font-size: 10px; fill: black; font-weight: normal; font-style: italic;">43%</tspan></text><text transform="rotate(-34.36363636363636) translate(145,0) rotate(0)"><tspan x="0" y="4" style="font-family: Arial, sans-serif; font-size: 10px; fill: black; font-weight: normal; font-style: italic;">9%</tspan></text><text transform="rotate(-21.272727272727266) translate(145,0) rotate(0)"><tspan x="0" y="4" style="font-family: Arial, sans-serif; font-size: 10px; fill: black; font-weight: normal; font-style: italic;">50%</tspan></text><text transform="rotate(1.636363636363626) translate(145,0) rotate(0)"><tspan x="0" y="4" style="font-family: Arial, sans-serif; font-size: 10px; fill: black; font-weight: normal; font-style: italic;">26%</tspan></text><text transform="rotate(18) translate(145,0) rotate(0)"><tspan x="0" y="4" style="font-family: Arial, sans-serif; font-size: 10px; fill: black; font-weight: normal; font-style: italic;">60%</tspan></text><text transform="rotate(24.545454545454547) translate(145,0) rotate(0)"><tspan x="0" y="4" style="font-family: Arial, sans-serif; font-size: 10px; fill: black; font-weight: normal; font-style: italic;">91%</tspan></text><text transform="rotate(34.36363636363636) translate(145,0) rotate(0)"><tspan x="0" y="4" style="font-family: Arial, sans-serif; font-size: 10px; fill: black; font-weight: normal; font-style: italic;">0%</tspan></text><text transform="rotate(44.18181818181819) translate(145,0) rotate(0)"><tspan x="0" y="4" style="font-family: Arial, sans-serif; font-size: 10px; fill: black; font-weight: normal; font-style: italic;">75%</tspan></text><text transform="rotate(54) translate(145,0) rotate(0)"><tspan x="0" y="4" style="font-family: Arial, sans-serif; font-size: 10px; fill: black; font-weight: normal; font-style: italic;">44%</tspan></text><text transform="rotate(63.81818181818181) translate(145,0) rotate(0)"><tspan x="0" y="4" style="font-family: Arial, sans-serif; font-size: 10px; fill: black; font-weight: normal; font-style: italic;">57%</tspan></text><text transform="rotate(76.9090909090909) translate(145,0) rotate(0)"><tspan x="0" y="4" style="font-family: Arial, sans-serif; font-size: 10px; fill: black; font-weight: normal; font-style: italic;">22%</tspan></text><text transform="rotate(99.81818181818181) translate(145,0) rotate(180)"><tspan x="0" y="4" style="font-family: Arial, sans-serif; font-size: 10px; fill: black; font-weight: normal; font-style: italic;">47%</tspan></text><text transform="rotate(116.18181818181819) translate(145,0) rotate(180)"><tspan x="0" y="4" style="font-family: Arial, sans-serif; font-size: 10px; fill: black; font-weight: normal; font-style: italic;">77%</tspan></text><text transform="rotate(122.72727272727278) translate(145,0) rotate(180)"><tspan x="0" y="4" style="font-family: Arial, sans-serif; font-size: 10px; fill: black; font-weight: normal; font-style: italic;">100%</tspan></text><text transform="rotate(129.27272727272728) translate(145,0) rotate(180)"><tspan x="0" y="4" style="font-family: Arial, sans-serif; font-size: 10px; fill: black; font-weight: normal; font-style: italic;">10%</tspan></text><text transform="rotate(139.09090909090915) translate(145,0) rotate(180)"><tspan x="0" y="4" style="font-family: Arial, sans-serif; font-size: 10px; fill: black; font-weight: normal; font-style: italic;">69%</tspan></text><text transform="rotate(152.18181818181822) translate(145,0) rotate(180)"><tspan x="0" y="4" style="font-family: Arial, sans-serif; font-size: 10px; fill: black; font-weight: normal; font-style: italic;">43%</tspan></text><text transform="rotate(162.00000000000009) translate(145,0) rotate(180)"><tspan x="0" y="4" style="font-family: Arial, sans-serif; font-size: 10px; fill: black; font-weight: normal; font-style: italic;">89%</tspan></text><text transform="rotate(171.8181818181818) translate(145,0) rotate(180)"><tspan x="0" y="4" style="font-family: Arial, sans-serif; font-size: 10px; fill: black; font-weight: normal; font-style: italic;">100%</tspan></text><text transform="rotate(184.90909090909088) translate(145,0) rotate(180)"><tspan x="0" y="4" style="font-family: Arial, sans-serif; font-size: 10px; fill: black; font-weight: normal; font-style: italic;">0%</tspan></text><text transform="rotate(194.7272727272727) translate(145,0) rotate(180)"><tspan x="0" y="4" style="font-family: Arial, sans-serif; font-size: 10px; fill: black; font-weight: normal; font-style: italic;">41%</tspan></text><text transform="rotate(201.2727272727272) translate(145,0) rotate(180)"><tspan x="0" y="4" style="font-family: Arial, sans-serif; font-size: 10px; fill: black; font-weight: normal; font-style: italic;">39%</tspan></text><text transform="rotate(214.36363636363632) translate(145,0) rotate(180)"><tspan x="0" y="4" style="font-family: Arial, sans-serif; font-size: 10px; fill: black; font-weight: normal; font-style: italic;">26%</tspan></text><text transform="rotate(227.45454545454538) translate(145,0) rotate(180)"><tspan x="0" y="4" style="font-family: Arial, sans-serif; font-size: 10px; fill: black; font-weight: normal; font-style: italic;">94%</tspan></text><text transform="rotate(233.9999999999999) translate(145,0) rotate(180)"><tspan x="0" y="4" style="font-family: Arial, sans-serif; font-size: 10px; fill: black; font-weight: normal; font-style: italic;">47%</tspan></text><text transform="rotate(240.5454545454545) translate(145,0) rotate(180)"><tspan x="0" y="4" style="font-family: Arial, sans-serif; font-size: 10px; fill: black; font-weight: normal; font-style: italic;">75%</tspan></text><text transform="rotate(253.6363636363635) translate(145,0) rotate(180)"><tspan x="0" y="4" style="font-family: Arial, sans-serif; font-size: 10px; fill: black; font-weight: normal; font-style: italic;">65%</tspan></text><text transform="rotate(266.72727272727263) translate(145,0) rotate(180)"><tspan x="0" y="4" style="font-family: Arial, sans-serif; font-size: 10px; fill: black; font-weight: normal; font-style: italic;">91%</tspan></text><text transform="rotate(-80.18181818181819) translate(203,0) rotate(0)"><tspan x="0" y="4" style="font-family: Arial, sans-serif; font-size: 10px; fill: black; font-weight: normal; font-style: italic;">13%</tspan></text><text transform="rotate(-67.0909090909091) translate(203,0) rotate(0)"><tspan x="0" y="4" style="font-family: Arial, sans-serif; font-size: 10px; fill: black; font-weight: normal; font-style: italic;">2%</tspan></text><text transform="rotate(-54) translate(203,0) rotate(0)"><tspan x="0" y="4" style="font-family: Arial, sans-serif; font-size: 10px; fill: black; font-weight: normal; font-style: italic;">2%</tspan></text><text transform="rotate(-40.9090909090909) translate(203,0) rotate(0)"><tspan x="0" y="4" style="font-family: Arial, sans-serif; font-size: 10px; fill: black; font-weight: normal; font-style: italic;">17%</tspan></text><text transform="rotate(-34.36363636363636) translate(203,0) rotate(0)"><tspan x="0" y="4" style="font-family: Arial, sans-serif; font-size: 10px; fill: black; font-weight: normal; font-style: italic;">6%</tspan></text><text transform="rotate(-21.272727272727266) translate(203,0) rotate(0)"><tspan x="0" y="4" style="font-family: Arial, sans-serif; font-size: 10px; fill: black; font-weight: normal; font-style: italic;">38%</tspan></text><text transform="rotate(-1.6363636363636402) translate(203,0) rotate(0)"><tspan x="0" y="4" style="font-family: Arial, sans-serif; font-size: 10px; fill: black; font-weight: normal; font-style: italic;">43%</tspan></text><text transform="rotate(11.454545454545453) translate(203,0) rotate(0)"><tspan x="0" y="4" style="font-family: Arial, sans-serif; font-size: 10px; fill: black; font-weight: normal; font-style: italic;">16%</tspan></text><text transform="rotate(18) translate(203,0) rotate(0)"><tspan x="0" y="4" style="font-family: Arial, sans-serif; font-size: 10px; fill: black; font-weight: normal; font-style: italic;">33%</tspan></text><text transform="rotate(24.545454545454547) translate(203,0) rotate(0)"><tspan x="0" y="4" style="font-family: Arial, sans-serif; font-size: 10px; fill: black; font-weight: normal; font-style: italic;">1%</tspan></text><text transform="rotate(31.090909090909093) translate(203,0) rotate(0)"><tspan x="0" y="4" style="font-family: Arial, sans-serif; font-size: 10px; fill: black; font-weight: normal; font-style: italic;">10%</tspan></text><text transform="rotate(37.63636363636361) translate(203,0) rotate(0)"><tspan x="0" y="4" style="font-family: Arial, sans-serif; font-size: 10px; fill: black; font-weight: normal; font-style: italic;">22%</tspan></text><text transform="rotate(44.18181818181819) translate(203,0) rotate(0)"><tspan x="0" y="4" style="font-family: Arial, sans-serif; font-size: 10px; fill: black; font-weight: normal; font-style: italic;">9%</tspan></text><text transform="rotate(54) translate(203,0) rotate(0)"><tspan x="0" y="4" style="font-family: Arial, sans-serif; font-size: 10px; fill: black; font-weight: normal; font-style: italic;">24%</tspan></text><text transform="rotate(63.81818181818181) translate(203,0) rotate(0)"><tspan x="0" y="4" style="font-family: Arial, sans-serif; font-size: 10px; fill: black; font-weight: normal; font-style: italic;">34%</tspan></text><text transform="rotate(76.9090909090909) translate(203,0) rotate(0)"><tspan x="0" y="4" style="font-family: Arial, sans-serif; font-size: 10px; fill: black; font-weight: normal; font-style: italic;">13%</tspan></text><text transform="rotate(99.81818181818181) translate(203,0) rotate(180)"><tspan x="0" y="4" style="font-family: Arial, sans-serif; font-size: 10px; fill: black; font-weight: normal; font-style: italic;">2%</tspan></text><text transform="rotate(116.18181818181819) translate(203,0) rotate(180)"><tspan x="0" y="4" style="font-family: Arial, sans-serif; font-size: 10px; fill: black; font-weight: normal; font-style: italic;">7%</tspan></text><text transform="rotate(122.72727272727278) translate(203,0) rotate(180)"><tspan x="0" y="4" style="font-family: Arial, sans-serif; font-size: 10px; fill: black; font-weight: normal; font-style: italic;">0%</tspan></text><text transform="rotate(129.27272727272728) translate(203,0) rotate(180)"><tspan x="0" y="4" style="font-family: Arial, sans-serif; font-size: 10px; fill: black; font-weight: normal; font-style: italic;">79%</tspan></text><text transform="rotate(139.09090909090915) translate(203,0) rotate(180)"><tspan x="0" y="4" style="font-family: Arial, sans-serif; font-size: 10px; fill: black; font-weight: normal; font-style: italic;">26%</tspan></text><text transform="rotate(152.18181818181822) translate(203,0) rotate(180)"><tspan x="0" y="4" style="font-family: Arial, sans-serif; font-size: 10px; fill: black; font-weight: normal; font-style: italic;">17%</tspan></text><text transform="rotate(162.00000000000009) translate(203,0) rotate(180)"><tspan x="0" y="4" style="font-family: Arial, sans-serif; font-size: 10px; fill: black; font-weight: normal; font-style: italic;">0%</tspan></text><text transform="rotate(171.8181818181818) translate(203,0) rotate(180)"><tspan x="0" y="4" style="font-family: Arial, sans-serif; font-size: 10px; fill: black; font-weight: normal; font-style: italic;">0%</tspan></text><text transform="rotate(181.63636363636363) translate(203,0) rotate(180)"><tspan x="0" y="4" style="font-family: Arial, sans-serif; font-size: 10px; fill: black; font-weight: normal; font-style: italic;">22%</tspan></text><text transform="rotate(188.18181818181813) translate(203,0) rotate(180)"><tspan x="0" y="4" style="font-family: Arial, sans-serif; font-size: 10px; fill: black; font-weight: normal; font-style: italic;">11%</tspan></text><text transform="rotate(194.7272727272727) translate(203,0) rotate(180)"><tspan x="0" y="4" style="font-family: Arial, sans-serif; font-size: 10px; fill: black; font-weight: normal; font-style: italic;">33%</tspan></text><text transform="rotate(201.2727272727272) translate(203,0) rotate(180)"><tspan x="0" y="4" style="font-family: Arial, sans-serif; font-size: 10px; fill: black; font-weight: normal; font-style: italic;">28%</tspan></text><text transform="rotate(214.36363636363632) translate(203,0) rotate(180)"><tspan x="0" y="4" style="font-family: Arial, sans-serif; font-size: 10px; fill: black; font-weight: normal; font-style: italic;">16%</tspan></text><text transform="rotate(227.45454545454538) translate(203,0) rotate(180)"><tspan x="0" y="4" style="font-family: Arial, sans-serif; font-size: 10px; fill: black; font-weight: normal; font-style: italic;">2%</tspan></text><text transform="rotate(233.9999999999999) translate(203,0) rotate(180)"><tspan x="0" y="4" style="font-family: Arial, sans-serif; font-size: 10px; fill: black; font-weight: normal; font-style: italic;">2%</tspan></text><text transform="rotate(240.5454545454545) translate(203,0) rotate(180)"><tspan x="0" y="4" style="font-family: Arial, sans-serif; font-size: 10px; fill: black; font-weight: normal; font-style: italic;">9%</tspan></text><text transform="rotate(253.6363636363635) translate(203,0) rotate(180)"><tspan x="0" y="4" style="font-family: Arial, sans-serif; font-size: 10px; fill: black; font-weight: normal; font-style: italic;">2%</tspan></text><text transform="rotate(266.72727272727263) translate(203,0) rotate(180)"><tspan x="0" y="4" style="font-family: Arial, sans-serif; font-size: 10px; fill: black; font-weight: normal; font-style: italic;">1%</tspan></text><text transform="rotate(-80.18181818181819) translate(261,0) rotate(0)"><tspan x="0" y="4" style="font-family: Arial, sans-serif; font-size: 10px; fill: black; font-weight: normal; font-style: italic;">65%</tspan></text><text transform="rotate(-67.0909090909091) translate(261,0) rotate(0)"><tspan x="0" y="4" style="font-family: Arial, sans-serif; font-size: 10px; fill: black; font-weight: normal; font-style: italic;">7%</tspan></text><text transform="rotate(-54) translate(261,0) rotate(0)"><tspan x="0" y="4" style="font-family: Arial, sans-serif; font-size: 10px; fill: black; font-weight: normal; font-style: italic;">51%</tspan></text><text transform="rotate(-40.9090909090909) translate(261,0) rotate(0)"><tspan x="0" y="4" style="font-family: Arial, sans-serif; font-size: 10px; fill: black; font-weight: normal; font-style: italic;">39%</tspan></text><text transform="rotate(-34.36363636363636) translate(261,0) rotate(0)"><tspan x="0" y="4" style="font-family: Arial, sans-serif; font-size: 10px; fill: black; font-weight: normal; font-style: italic;">85%</tspan></text><text transform="rotate(-21.272727272727266) translate(261,0) rotate(0)"><tspan x="0" y="4" style="font-family: Arial, sans-serif; font-size: 10px; fill: black; font-weight: normal; font-style: italic;">13%</tspan></text><text transform="rotate(-1.6363636363636402) translate(261,0) rotate(0)"><tspan x="0" y="4" style="font-family: Arial, sans-serif; font-size: 10px; fill: black; font-weight: normal; font-style: italic;">32%</tspan></text><text transform="rotate(11.454545454545453) translate(261,0) rotate(0)"><tspan x="0" y="4" style="font-family: Arial, sans-serif; font-size: 10px; fill: black; font-weight: normal; font-style: italic;">58%</tspan></text><text transform="rotate(18) translate(261,0) rotate(0)"><tspan x="0" y="4" style="font-family: Arial, sans-serif; font-size: 10px; fill: black; font-weight: normal; font-style: italic;">7%</tspan></text><text transform="rotate(24.545454545454547) translate(261,0) rotate(0)"><tspan x="0" y="4" style="font-family: Arial, sans-serif; font-size: 10px; fill: black; font-weight: normal; font-style: italic;">8%</tspan></text><text transform="rotate(31.090909090909093) translate(261,0) rotate(0)"><tspan x="0" y="4" style="font-family: Arial, sans-serif; font-size: 10px; fill: black; font-weight: normal; font-style: italic;">90%</tspan></text><text transform="rotate(37.63636363636361) translate(261,0) rotate(0)"><tspan x="0" y="4" style="font-family: Arial, sans-serif; font-size: 10px; fill: black; font-weight: normal; font-style: italic;">78%</tspan></text><text transform="rotate(44.18181818181819) translate(261,0) rotate(0)"><tspan x="0" y="4" style="font-family: Arial, sans-serif; font-size: 10px; fill: black; font-weight: normal; font-style: italic;">16%</tspan></text><text transform="rotate(54) translate(261,0) rotate(0)"><tspan x="0" y="4" style="font-family: Arial, sans-serif; font-size: 10px; fill: black; font-weight: normal; font-style: italic;">32%</tspan></text><text transform="rotate(63.81818181818181) translate(261,0) rotate(0)"><tspan x="0" y="4" style="font-family: Arial, sans-serif; font-size: 10px; fill: black; font-weight: normal; font-style: italic;">9%</tspan></text><text transform="rotate(76.9090909090909) translate(261,0) rotate(0)"><tspan x="0" y="4" style="font-family: Arial, sans-serif; font-size: 10px; fill: black; font-weight: normal; font-style: italic;">65%</tspan></text><text transform="rotate(99.81818181818181) translate(261,0) rotate(180)"><tspan x="0" y="4" style="font-family: Arial, sans-serif; font-size: 10px; fill: black; font-weight: normal; font-style: italic;">51%</tspan></text><text transform="rotate(116.18181818181819) translate(261,0) rotate(180)"><tspan x="0" y="4" style="font-family: Arial, sans-serif; font-size: 10px; fill: black; font-weight: normal; font-style: italic;">17%</tspan></text><text transform="rotate(122.72727272727278) translate(261,0) rotate(180)"><tspan x="0" y="4" style="font-family: Arial, sans-serif; font-size: 10px; fill: black; font-weight: normal; font-style: italic;">0%</tspan></text><text transform="rotate(129.27272727272728) translate(261,0) rotate(180)"><tspan x="0" y="4" style="font-family: Arial, sans-serif; font-size: 10px; fill: black; font-weight: normal; font-style: italic;">10%</tspan></text><text transform="rotate(139.09090909090915) translate(261,0) rotate(180)"><tspan x="0" y="4" style="font-family: Arial, sans-serif; font-size: 10px; fill: black; font-weight: normal; font-style: italic;">5%</tspan></text><text transform="rotate(152.18181818181822) translate(261,0) rotate(180)"><tspan x="0" y="4" style="font-family: Arial, sans-serif; font-size: 10px; fill: black; font-weight: normal; font-style: italic;">39%</tspan></text><text transform="rotate(162.00000000000009) translate(261,0) rotate(180)"><tspan x="0" y="4" style="font-family: Arial, sans-serif; font-size: 10px; fill: black; font-weight: normal; font-style: italic;">11%</tspan></text><text transform="rotate(171.8181818181818) translate(261,0) rotate(180)"><tspan x="0" y="4" style="font-family: Arial, sans-serif; font-size: 10px; fill: black; font-weight: normal; font-style: italic;">0%</tspan></text><text transform="rotate(181.63636363636363) translate(261,0) rotate(180)"><tspan x="0" y="4" style="font-family: Arial, sans-serif; font-size: 10px; fill: black; font-weight: normal; font-style: italic;">78%</tspan></text><text transform="rotate(188.18181818181813) translate(261,0) rotate(180)"><tspan x="0" y="4" style="font-family: Arial, sans-serif; font-size: 10px; fill: black; font-weight: normal; font-style: italic;">89%</tspan></text><text transform="rotate(194.7272727272727) translate(261,0) rotate(180)"><tspan x="0" y="4" style="font-family: Arial, sans-serif; font-size: 10px; fill: black; font-weight: normal; font-style: italic;">26%</tspan></text><text transform="rotate(201.2727272727272) translate(261,0) rotate(180)"><tspan x="0" y="4" style="font-family: Arial, sans-serif; font-size: 10px; fill: black; font-weight: normal; font-style: italic;">33%</tspan></text><text transform="rotate(214.36363636363632) translate(261,0) rotate(180)"><tspan x="0" y="4" style="font-family: Arial, sans-serif; font-size: 10px; fill: black; font-weight: normal; font-style: italic;">58%</tspan></text><text transform="rotate(227.45454545454538) translate(261,0) rotate(180)"><tspan x="0" y="4" style="font-family: Arial, sans-serif; font-size: 10px; fill: black; font-weight: normal; font-style: italic;">4%</tspan></text><text transform="rotate(233.9999999999999) translate(261,0) rotate(180)"><tspan x="0" y="4" style="font-family: Arial, sans-serif; font-size: 10px; fill: black; font-weight: normal; font-style: italic;">51%</tspan></text><text transform="rotate(240.5454545454545) translate(261,0) rotate(180)"><tspan x="0" y="4" style="font-family: Arial, sans-serif; font-size: 10px; fill: black; font-weight: normal; font-style: italic;">16%</tspan></text><text transform="rotate(253.6363636363635) translate(261,0) rotate(180)"><tspan x="0" y="4" style="font-family: Arial, sans-serif; font-size: 10px; fill: black; font-weight: normal; font-style: italic;">33%</tspan></text><text transform="rotate(266.72727272727263) translate(261,0) rotate(180)"><tspan x="0" y="4" style="font-family: Arial, sans-serif; font-size: 10px; fill: black; font-weight: normal; font-style: italic;">8%</tspan></text></g></svg>