<svg xmlns="http://www.w3.org/2000/svg" width="800" height="600"><rect width="800" height="600" x="0" y="0" fill="#FFFFFF" id="background"/><g transform="translate(400,300)" id="viz"><path fill="#cccccc" display="" d="M0.999992072947904,-191.3307201165001A191.33333333333334,191.33333333333334,0,0,1,163.32948326097363,-99.65904044364352L82.25958344970628,-50.772092483226004A96.66666666666667,96.66666666666667,0,0,0,0.9999920729479188,-96.66149419649216Z"><title>desayuno</title></path><path fill="#cccccc" display="" d="M164.36226999723243,-97.94635595978708A191.33333333333334,191.33333333333334,0,0,1,75.40044611285273,175.8499848462525L38.54854647398611,88.64792162925976A96.66666666666667,96.66666666666667,0,0,0,83.29237018596504,-49.05940799936958Z"><title>almuerzo</title></path><path fill="#cccccc" display="" d="M73.55821341021343,176.62851888735847A191.33333333333334,191.33333333333334,0,0,1,-184.79068784954202,49.60691613613538L-93.23164376393737,25.540263223364086A96.66666666666667,96.66666666666667,0,0,0,36.70631377134676,89.42645567036573Z"><title>merienda</title></path><path fill="#cccccc" display="" d="M-185.29912048752504,47.67263775997841A191.33333333333334,191.33333333333334,0,0,1,-0.999992072947885,-191.3307201165001L-0.9999920729478876,-96.66149419649216A96.66666666666667,96.66666666666667,0,0,0,-93.74007640192039,23.605984847207157Z"><title>cena</title></path><path fill="rgb(237, 194, 195)" display="" d="M0.9999920729479248,-287.99826391118063A288,288,0,0,1,95.83980493685942,-271.5855883320482L64.02684337210053,-182.42352125091296A193.33333333333334,193.33333333333334,0,0,0,0.9999920729479279,-193.33074715014118Z"><title>13%</title></path><path fill="rgb(242, 210, 208)" display="" d="M97.7234787320398,-270.91349487337936A288,288,0,0,1,205.83578272207833,-201.43393594722156L137.94669557518472,-135.45658698514848A193.33333333333334,193.33333333333334,0,0,0,65.91051716728093,-181.7514277922442Z"><title>2%</title></path><path fill="rgb(247, 224, 221)" display="" d="M207.22964681006812,-199.99968370718594A288,288,0,0,1,227.4558289739822,-176.65742516452167L152.4884098350304,-118.84890678404062A193.33333333333334,193.33333333333334,0,0,0,139.34055966317447,-134.02233474511291Z"><title>17%</title></path><path fill="rgb(248, 224, 222)" display="" d="M228.67711505197795,-175.07363322757783A288,288,0,0,1,246.11064064635133,-149.57791468208973L165.04220447170917,-100.69184932702508A193.33333333333334,193.33333333333334,0,0,0,153.70969591302617,-117.26511484709681Z"><title>6%</title></path><path fill="rgb(255, 245, 240)" display="" d="M247.14342738261013,-147.8652301982333A288,288,0,0,1,282.06348719182415,-58.17378441521279L189.2815049124075,-39.37371808544404A193.33333333333334,193.33333333333334,0,0,0,166.07499120796794,-98.97916484316868Z"><title>38%</title></path><path fill="rgb(182, 39, 57)" display="" d="M282.4606649766417,-56.21363483135904A288,288,0,0,1,285.20917055390635,39.99661275599174L191.50523261420693,26.52402041841091A193.33333333333334,193.33333333333334,0,0,0,189.67868269722507,-37.41356850159029Z"><title>43%</title></path><path fill="rgb(200, 90, 102)" display="" d="M284.9245431336341,41.97623994702134A288,288,0,0,1,278.790831420314,72.24729971403806L187.23344034242993,48.181081300812636A193.33333333333334,193.33333333333334,0,0,0,191.22060519393463,28.50364760944051Z"><title>16%</title></path><path fill="rgb(241, 205, 204)" display="" d="M278.282398782331,74.18157809019499A288,288,0,0,1,268.73802744353105,103.55613263230697L180.52077383914613,69.21002810499093A193.33333333333334,193.33333333333334,0,0,0,186.72500770444688,50.11535967696955Z"><title>33%</title></path><path fill="rgb(198, 84, 97)" display="" d="M268.0124177848209,105.41984591686048A288,288,0,0,1,255.18181229717703,133.51495299301993L171.45474297792617,89.33671634972404A193.33333333333334,193.33333333333334,0,0,0,179.79516418043602,71.07374138954442Z"><title>1%</title></path><path fill="rgb(230, 175, 178)" display="" d="M254.24848504931805,135.28380483312372A288,288,0,0,1,238.2989119772438,161.7332017566641L160.15353733575338,108.29876387393915A193.33333333333334,193.33333333333334,0,0,0,170.52141573006722,91.10556818982784Z"><title>10%</title></path><path fill="rgb(237, 194, 195)" display="" d="M237.17003448825184,163.38413246347218A288,288,0,0,1,218.30942090847014,187.84301089635574L146.76448541114,125.84897138944385A193.33333333333334,193.33333333333334,0,0,0,159.02465984676147,109.94969458074722Z"><title>9%</title></path><path fill="rgb(227, 165, 169)" display="" d="M216.99970982280988,189.35449806333173A288,288,0,0,1,170.09014279408257,232.40770926173815L114.44597257079309,155.82007938678206A193.33333333333334,193.33333333333334,0,0,0,145.45477432547975,127.36045855641984Z"><title>24%</title></path><path fill="rgb(240, 203, 203)" display="" d="M168.47212163157238,233.58327044751445A288,288,0,0,1,142.4889677805714,250.2816294913138L95.93783289472881,167.85026064096795A193.33333333333334,193.33333333333334,0,0,0,112.82795140828293,156.99564057255836Z"><title>34%</title></path><path fill="rgb(238, 197, 198)" display="" d="M140.74748943123086,251.26508754462A288,288,0,0,1,113.03023116324891,264.8927459240485L76.17899684887573,177.69225705380853A193.33333333333334,193.33333333333334,0,0,0,94.19635454538827,168.83371869427413Z"><title>22%</title></path><path fill="rgb(237, 194, 195)" display="" d="M111.1879984606098,265.6712799651544A288,288,0,0,1,17.439839607033154,287.47148031497136L12.03538364781427,192.95835643533997A193.33333333333334,193.33333333333334,0,0,0,74.33676414623653,178.4707910949144Z"><title>13%</title></path><path fill="rgb(242, 210, 208)" display="" d="M15.443117227428669,287.5856570316049A288,288,0,0,1,-111.18799846060978,265.6712799651544L-74.3367641462365,178.47079109491443A193.33333333333334,193.33333333333334,0,0,0,10.038661268209768,193.07253315197354Z"><title>2%</title></path><path fill="rgb(251, 235, 231)" display="" d="M-113.03023116324911,264.8927459240484A288,288,0,0,1,-140.74748943123106,251.26508754461992L-94.1963545453884,168.83371869427407A193.33333333333334,193.33333333333334,0,0,0,-76.17899684887585,177.69225705380848Z"><title>7%</title></path><path fill="rgb(251, 234, 231)" display="" d="M-142.48896778057158,250.2816294913137A288,288,0,0,1,-194.00046208154228,212.8563382005527L-129.98866337645737,143.1108841820909A193.33333333333334,193.33333333333334,0,0,0,-95.93783289472894,167.85026064096786Z"><title>0%</title></path><path fill="rgb(252, 236, 232)" display="" d="M-195.47393267692433,211.503999120152A288,288,0,0,1,-216.99970982281002,189.3544980633316L-145.45477432547983,127.36045855641976A193.33333333333334,193.33333333333334,0,0,0,-131.46213397183942,141.75854510169017Z"><title>79%</title></path><path fill="rgb(243, 210, 209)" display="" d="M-218.30942090847032,187.84301089635557A288,288,0,0,1,-254.24848504931813,135.28380483312353L-170.52141573006728,91.10556818982772A193.33333333333334,193.33333333333334,0,0,0,-146.76448541114013,125.84897138944372Z"><title>26%</title></path><path fill="rgb(247, 224, 221)" display="" d="M-255.18181229717712,133.51495299301973A288,288,0,0,1,-278.2823987823311,74.18157809019472L-186.72500770444697,50.115359676969376A193.33333333333334,193.33333333333334,0,0,0,-171.45474297792626,89.3367163497239Z"><title>17%</title></path><path fill="rgb(234, 186, 187)" display="" d="M-278.790831420314,72.24729971403804A288,288,0,0,1,-287.85226032926016,9.223677321752898L-193.22334966049343,6.520346904611547A193.33333333333334,193.33333333333334,0,0,0,-187.23344034242993,48.1810813008126Z"><title>0%</title></path><path fill="rgb(246, 219, 217)" display="" d="M-287.90937197811695,7.224508783735289A288,288,0,0,1,-287.0273830981981,-23.649130043201097L-192.7071322671988,-15.547956493704483A193.33333333333334,193.33333333333334,0,0,0,-193.28046130935022,4.52117836659392Z"><title>22%</title></path><path fill="rgb(251, 235, 231)" display="" d="M-286.8562344379555,-25.641777708979415A288,288,0,0,1,-282.46066497664174,-56.213634831358824L-189.67868269722513,-37.41356850159013A193.33333333333334,193.33333333333334,0,0,0,-192.53598360695622,-17.54060415948282Z"><title>33%</title></path><path fill="rgb(214, 130, 138)" display="" d="M-282.0634871918242,-58.173784415212566A288,288,0,0,1,-274.2116401192009,-88.04530892181504L-184.17748142213367,-58.79143742737875A193.33333333333334,193.33333333333334,0,0,0,-189.28150491240757,-39.373718085443905Z"><title>28%</title></path><path fill="rgb(200, 90, 102)" display="" d="M-273.5936110296386,-89.94740687625624A288,288,0,0,1,-228.6771150519781,-175.07363322757763L-153.70969591302628,-117.26511484709668A193.33333333333334,193.33333333333334,0,0,0,-183.55945233257137,-60.693535381819984Z"><title>16%</title></path><path fill="rgb(239, 201, 201)" display="" d="M-227.4558289739823,-176.6574251645215A288,288,0,0,1,-97.72347873204006,-270.9134948733793L-65.91051716728111,-181.7514277922441A193.33333333333334,193.33333333333334,0,0,0,-152.4884098350305,-118.84890678404054Z"><title>2%</title></path><path fill="rgb(216, 134, 141)" display="" d="M-95.8398049368597,-271.5855883320481A288,288,0,0,1,-66.20467999601412,-280.2872461362189L-44.7627934694142,-188.07995666362845A193.33333333333334,193.33333333333334,0,0,0,-64.02684337210071,-182.42352125091287Z"><title>9%</title></path><path fill="rgb(213, 127, 135)" display="" d="M-64.25667160421587,-280.7402360801671A288,288,0,0,1,-33.822802009231054,-286.0070245015747L-23.03151830280363,-191.9565756686793A193.33333333333334,193.33333333333334,0,0,0,-42.81478507761592,-188.53294660757663Z"><title>1%</title></path><path fill="rgb(239, 199, 199)" display="" d="M-31.83585428929689,-286.2350055141241A288,288,0,0,1,-0.9999920729484716,-287.99826391118063L-0.999992072948295,-193.33074715014118A193.33333333333334,193.33333333333334,0,0,0,-21.044570582869454,-192.18455668122868Z"><title>11%</title></path></g><g id="labels" transform="translate(400,300)" text-anchor="middle"><text transform="rotate(90) translate(48.333333333333336,0) rotate(180)"><tspan x="0" y="4" style="font-family: Arial, sans-serif; font-size: 10px; fill: black; font-weight: normal; font-style: italic;"/></text><text transform="rotate(-60.54545454545455) translate(145,0) rotate(0)"><tspan x="0" y="4" style="font-family: Arial, sans-serif; font-size: 10px; fill: black; font-weight: normal; font-style: italic;">desayuno</tspan></text><text transform="rotate(18) translate(145,0) rotate(0)"><tspan x="0" y="4" style="font-family: Arial, sans-serif; font-size: 10px; fill: black; font-weight: normal; font-style: italic;">almuerzo</tspan></text><text transform="rotate(116.18181818181819) translate(145,0) rotate(180)"><tspan x="0" y="4" style="font-family: Arial, sans-serif; font-size: 10px; fill: black; font-weight: normal; font-style: italic;">merienda</tspan></text><text transform="rotate(217.63636363636363) translate(145,0) rotate(180)"><tspan x="0" y="4" style="font-family: Arial, sans-serif; font-size: 10px; fill: black; font-weight: normal; font-style: italic;">cena</tspan></text><text transform="rotate(-80.18181818181819) translate(241.66666666666669,0) rotate(0)"><tspan x="0" y="4" style="font-family: Arial, sans-serif; font-size: 10px; fill: black; font-weight: bold;">13%</tspan></text><text transform="rotate(-57.272727272727266) translate(241.66666666666669,0) rotate(0)"><tspan x="0" y="4" style="font-family: Arial, sans-serif; font-size: 10px; fill: black; font-weight: bold;">2%</tspan></text><text transform="rotate(-40.9090909090909) translate(241.66666666666669,0) rotate(0)"><tspan x="0" y="4" style="font-family: Arial, sans-serif; font-size: 10px; fill: black; font-weight: bold;">17%</tspan></text><text transform="rotate(-34.36363636363636) translate(241.66666666666669,0) rotate(0)"><tspan x="0" y="4" style="font-family: Arial, sans-serif; font-size: 10px; fill: black; font-weight: bold;">6%</tspan></text><text transform="rotate(-21.272727272727266) translate(241.66666666666669,0) rotate(0)"><tspan x="0" y="4" style="font-family: Arial, sans-serif; font-size: 10px; fill: black; font-weight: bold;">38%</tspan></text><text transform="rotate(-1.6363636363636402) translate(241.66666666666669,0) rotate(0)"><tspan x="0" y="4" style="font-family: Arial, sans-serif; font-size: 10px; fill: black; font-weight: bold;">43%</tspan></text><text transform="rotate(11.454545454545453) translate(241.66666666666669,0) rotate(0)"><tspan x="0" y="4" style="font-family: Arial, sans-serif; font-size: 10px; fill: black; font-weight: bold;">16%</tspan></text><text transform="rotate(18) translate(241.66666666666669,0) rotate(0)"><tspan x="0" y="4" style="font-family: Arial, sans-serif; font-size: 10px; fill: black; font-weight: bold;">33%</tspan></text><text transform="rotate(24.545454545454547) translate(241.66666666666669,0) rotate(0)"><tspan x="0" y="4" style="font-family: Arial, sans-serif; font-size: 10px; fill: black; font-weight: bold;">1%</tspan></text><text transform="rotate(31.090909090909108) translate(241.66666666666669,0) rotate(0)"><tspan x="0" y="4" style="font-family: Arial, sans-serif; font-size: 10px; fill: black; font-weight: bold;">10%</tspan></text><text transform="rotate(37.636363636363654) translate(241.66666666666669,0) rotate(0)"><tspan x="0" y="4" style="font-family: Arial, sans-serif; font-size: 10px; fill: black; font-weight: bold;">9%</tspan></text><text transform="rotate(47.45454545454547) translate(241.66666666666669,0) rotate(0)"><tspan x="0" y="4" style="font-family: Arial, sans-serif; font-size: 10px; fill: black; font-weight: bold;">24%</tspan></text><text transform="rotate(57.27272727272728) translate(241.66666666666669,0) rotate(0)"><tspan x="0" y="4" style="font-family: Arial, sans-serif; font-size: 10px; fill: black; font-weight: bold;">34%</tspan></text><text transform="rotate(63.81818181818187) translate(241.66666666666669,0) rotate(0)"><tspan x="0" y="4" style="font-family: Arial, sans-serif; font-size: 10px; fill: black; font-weight: bold;">22%</tspan></text><text transform="rotate(76.9090909090909) translate(241.66666666666669,0) rotate(0)"><tspan x="0" y="4" style="font-family: Arial, sans-serif; font-size: 10px; fill: black; font-weight: bold;">13%</tspan></text><text transform="rotate(99.81818181818181) translate(241.66666666666669,0) rotate(180)"><tspan x="0" y="4" style="font-family: Arial, sans-serif; font-size: 10px; fill: black; font-weight: bold;">2%</tspan></text><text transform="rotate(116.18181818181819) translate(241.66666666666669,0) rotate(180)"><tspan x="0" y="4" style="font-family: Arial, sans-serif; font-size: 10px; fill: black; font-weight: bold;">7%</tspan></text><text transform="rotate(126) translate(241.66666666666669,0) rotate(180)"><tspan x="0" y="4" style="font-family: Arial, sans-serif; font-size: 10px; fill: black; font-weight: bold;">0%</tspan></text><text transform="rotate(135.81818181818184) translate(241.66666666666669,0) rotate(180)"><tspan x="0" y="4" style="font-family: Arial, sans-serif; font-size: 10px; fill: black; font-weight: bold;">79%</tspan></text><text transform="rotate(145.63636363636363) translate(241.66666666666669,0) rotate(180)"><tspan x="0" y="4" style="font-family: Arial, sans-serif; font-size: 10px; fill: black; font-weight: bold;">26%</tspan></text><text transform="rotate(158.7272727272728) translate(241.66666666666669,0) rotate(180)"><tspan x="0" y="4" style="font-family: Arial, sans-serif; font-size: 10px; fill: black; font-weight: bold;">17%</tspan></text><text transform="rotate(171.8181818181818) translate(241.66666666666669,0) rotate(180)"><tspan x="0" y="4" style="font-family: Arial, sans-serif; font-size: 10px; fill: black; font-weight: bold;">0%</tspan></text><text transform="rotate(181.63636363636363) translate(241.66666666666669,0) rotate(180)"><tspan x="0" y="4" style="font-family: Arial, sans-serif; font-size: 10px; fill: black; font-weight: bold;">22%</tspan></text><text transform="rotate(188.18181818181813) translate(241.66666666666669,0) rotate(180)"><tspan x="0" y="4" style="font-family: Arial, sans-serif; font-size: 10px; fill: black; font-weight: bold;">33%</tspan></text><text transform="rotate(194.7272727272727) translate(241.66666666666669,0) rotate(180)"><tspan x="0" y="4" style="font-family: Arial, sans-serif; font-size: 10px; fill: black; font-weight: bold;">28%</tspan></text><text transform="rotate(207.81818181818176) translate(241.66666666666669,0) rotate(180)"><tspan x="0" y="4" style="font-family: Arial, sans-serif; font-size: 10px; fill: black; font-weight: bold;">16%</tspan></text><text transform="rotate(233.99999999999994) translate(241.66666666666669,0) rotate(180)"><tspan x="0" y="4" style="font-family: Arial, sans-serif; font-size: 10px; fill: black; font-weight: bold;">2%</tspan></text><text transform="rotate(253.6363636363635) translate(241.66666666666669,0) rotate(180)"><tspan x="0" y="4" style="font-family: Arial, sans-serif; font-size: 10px; fill: black; font-weight: bold;">9%</tspan></text><text transform="rotate(260.1818181818181) translate(241.66666666666669,0) rotate(180)"><tspan x="0" y="4" style="font-family: Arial, sans-serif; font-size: 10px; fill: black; font-weight: bold;">1%</tspan></text><text transform="rotate(266.72727272727263) translate(241.66666666666669,0) rotate(180)"><tspan x="0" y="4" style="font-family: Arial, sans-serif; font-size: 10px; fill: black; font-weight: bold;">11%</tspan></text></g></svg>